inDegrees=yes
name=ik_MT_01200627-005-000_orientations_updatedTime
DataType=double
version=3
OpenSimVersion=4.5-2024-07-10-f38669b70
endheader
time	pelvis_tilt	pelvis_list	pelvis_rotation	pelvis_tx	pelvis_ty	pelvis_tz	hip_flexion_r	hip_adduction_r	hip_rotation_r	knee_angle_r	knee_angle_r_beta	ankle_angle_r	subtalar_angle_r	mtp_angle_r	hip_flexion_l	hip_adduction_l	hip_rotation_l	knee_angle_l	knee_angle_l_beta	ankle_angle_l	subtalar_angle_l	mtp_angle_l	lumbar_extension	lumbar_bending	lumbar_rotation	arm_flex_r	arm_add_r	arm_rot_r	elbow_flex_r	pro_sup_r	wrist_flex_r	wrist_dev_r	arm_flex_l	arm_add_l	arm_rot_l	elbow_flex_l	pro_sup_l	wrist_flex_l	wrist_dev_l
1748432646.314544	2.10059198755091	0.08367763433230206	-171.6147267334782	0	0.9399999943917833	0	79.99999999525214	-7.000000001125469	0	79.99999999792263	1.396263401559207	0	0	0	79.99999999525214	-7.000000004501878	0	79.99999999802388	1.396263401560974	0	0	0	2.91892734194622	-0.7194030555547809	0.2956763387301196	-4.774389874810981	-0.9221157680647575	26.97661179045298	2.296390203176971	35.72619220118962	-13.22716693606073	-11.72553985507021	-2.707898122296372	2.178579909764481	19.21075317842755	5.415506615257072	17.08726560827019	-13.59571362280325	-2.335109802450301
1748432646.324544	2.104249101520303	0.08809735454496023	-171.6170962485839	0	0.9399999943917833	0	79.99999999525214	-7.000000001125469	0	79.99999999792263	1.396263401559207	0	0	0	79.99999999525214	-7.000000004501878	0	79.99999999802388	1.396263401560974	0	0	0	2.914601270553688	-0.7099262983600768	0.2677612015457498	-4.791745466794877	-0.8617635148670555	27.01061738053619	2.273247857774475	35.70673706058666	-13.2599273411294	-11.76808390383032	-2.718201526502499	2.170339765094081	19.17291243008046	5.499427467093893	16.99176888866628	-13.52526541641024	-2.299081035393399
1748432646.334544	2.103493591760405	0.08420238259224679	-171.6215568674954	0	0.9399999943917833	0	79.99999999525214	-7.000000001125469	0	79.99999999792263	1.396263401559207	0	0	0	79.99999999525214	-7.000000004501878	0	79.99999999802388	1.396263401560974	0	0	0	2.896973586809297	-0.7038386133689367	0.2675143350655632	-4.819382385664833	-0.8237281209337732	26.99422316863342	2.274273415399114	35.70709181075586	-13.2646914736039	-11.77343685172734	-2.682103996630762	2.199780617755822	19.10359218770002	5.550961836410483	16.88897709672753	-13.46885400720848	-2.272790024835333
1748432646.344544	2.091176702626574	0.08321794829652487	-171.6596459847587	0	0.9399999943917833	0	79.99999999525214	-7.000000001125469	0	79.99999999792263	1.396263401559207	0	0	0	79.99999999525214	-7.000000004501878	0	79.99999999802388	1.396263401560974	0	0	0	2.869657467855689	-0.6909279386902956	0.2405765050956672	-4.83837884398802	-0.7859079859823093	27.03385001246967	2.261880753317299	35.73205348579935	-13.3108171614888	-11.82367682692473	-2.677351619771989	2.203440682924529	19.02930646558811	5.671781000109103	16.63448728975934	-13.3799787487961	-2.222227057293073
1748432646.354544	2.081866720574999	0.08934626950744314	-171.6474977413972	0	0.9399999943917833	0	79.99999999525214	-7.000000001125469	0	79.99999999792263	1.396263401559207	0	0	0	79.99999999525214	-7.000000004501878	0	79.99999999802388	1.396263401560974	0	0	0	2.854750521787521	-0.6840810982791096	0.2130341752764521	-4.882278315623378	-0.7096163605711635	27.04814292502332	2.248881228410124	35.72548630146591	-13.34304035581417	-11.85968379567213	-2.679481257960055	2.222077012470366	18.97228229441415	5.820656996157761	16.4045379039903	-13.34361279727898	-2.207655531360676
1748432646.364544	2.083428335831887	0.0889551846304162	-171.6575244894237	0	0.9399999943917833	0	79.99999999525214	-7.000000001125469	0	79.99999999792263	1.396263401559207	0	0	0	79.99999999525214	-7.000000004501878	0	79.99999999802388	1.396263401560974	0	0	0	2.853387833829351	-0.6826703918034279	0.2172292058432319	-4.914683361337856	-0.6652920103120511	27.04304668086958	2.238895997749106	35.7243908611345	-13.36090138282322	-11.87564914490173	-2.671212800605891	2.246304744078129	18.86774561324611	5.927571765979256	16.22550841389425	-13.31955895422225	-2.210635472581039
1748432646.374544	2.083623975666733	0.08965902730116709	-171.66125921835	0	0.9399999943917833	0	79.99999999525214	-7.000000001125469	0	79.99999999792263	1.396263401559207	0	0	0	79.99999999525214	-7.000000004501878	0	79.99999999802388	1.396263401560974	0	0	0	2.851806172707723	-0.6794040206386662	0.2190503856040048	-4.961394491875324	-0.6106971518813177	27.04043761010861	2.230600828888453	35.7297629478108	-13.38406931494549	-11.89681612566674	-2.66180070908096	2.27072176423315	18.77392799109283	6.030109901197968	16.08526878294657	-13.30478538581197	-2.217344009901866
1748432646.384544	2.08117842993601	0.08983990235930685	-171.6350787243893	0	0.9399999943917833	0	79.99999999525214	-7.000000001125469	0	79.99999999792263	1.396263401559207	0	0	0	79.99999999525214	-7.000000004501878	0	79.99999999802388	1.396263401560974	0	0	0	2.853051290848599	-0.6764504482276222	0.2249171688653893	-5.004291665053218	-0.5630061688021956	27.00856642827378	2.224827509901525	35.71768275387163	-13.38851988802879	-11.89314739581085	-2.634089187527823	2.302490743650815	18.70024931693316	6.082219647226563	16.02927998719695	-13.28252311655225	-2.217149074829667
1748432646.394544	2.076431001312109	0.09653428409322433	-171.6646918866638	0	0.9399999943917833	0	79.99999999525214	-7.000000001125469	0	79.99999999792263	1.396263401559207	0	0	0	79.99999999525214	-7.000000004501878	0	79.99999999802388	1.396263401560974	0	0	0	2.863255392392775	-0.6716760541060927	0.2116617711169401	-5.074464698491712	-0.4824722459663034	27.01453761080885	2.208438737018164	35.79427763614147	-13.44515914357454	-11.95017213062124	-2.659696634318765	2.302068654800063	18.5804823725717	6.166224108544823	15.96518628343001	-13.27960737537633	-2.229020434451629
1748432646.404544	2.089302861198802	0.1000161409025486	-171.6515418914084	0	0.9399999943917833	0	79.99999999525214	-7.000000001125469	0	79.99999999792263	1.396263401559207	0	0	0	79.99999999525214	-7.000000004501878	0	79.99999999802388	1.396263401560974	0	0	0	2.923979931238767	-0.6887109180763977	0.1893142950354522	-5.177719438588602	-0.4044581653462442	27.01912870886964	2.203915631308145	35.82161805448215	-13.4794008463224	-11.98762997121714	-2.713608418636672	2.280839878747357	18.49060200815263	6.2264816188719	15.97235270724181	-13.27171721918602	-2.235338965944378
1748432646.414544	2.090044884796244	0.1008313120369945	-171.6485291032724	0	0.9399999943917833	0	79.99999999525214	-7.000000001125469	0	79.99999999792263	1.396263401559207	0	0	0	79.99999999525214	-7.000000004501878	0	79.99999999802388	1.396263401560974	0	0	0	2.938095690111554	-0.6872160667782213	0.1909303457494264	-5.245242154309862	-0.3615107399913868	27.00733038632267	2.208013399874256	35.86684365309016	-13.49019467556744	-12.00028047999247	-2.729258016191551	2.285960510006237	18.45924927814373	6.253372187389048	15.96947728882852	-13.25866418697422	-2.247935611700758
1748432646.424544	2.100613525967201	0.09881141147269798	-171.6431386758887	0	0.9399999943917833	0	79.99999999525214	-7.000000001125469	0	79.99999999792263	1.396263401559207	0	0	0	79.99999999525214	-7.000000004501878	0	79.99999999802388	1.396263401560974	0	0	0	2.957822824129924	-0.6794650308375705	0.1899164212130377	-5.289026252346648	-0.3372164660640415	26.99899247333736	2.173404662689508	35.90521828123953	-13.48486202130684	-12.0051407704329	-2.766686110805164	2.290375124641537	18.44362020006802	6.286409599809587	15.98088549424922	-13.24721279301609	-2.258919267923016
1748432646.434544	2.103671597328225	0.1076799599489202	-171.6386526521646	0	0.9399999943917833	0	79.99999999525214	-7.000000001125469	0	79.99999999792263	1.396263401559207	0	0	0	79.99999999525214	-7.000000004501878	0	79.99999999802388	1.396263401560974	0	0	0	2.975421439310238	-0.6677542239383242	0.1798322381641319	-5.359347497430578	-0.3167100413261683	27.01225659434005	2.180087115795305	35.94381740800279	-13.48033862012628	-11.99976903289627	-2.779419710510022	2.288795059265172	18.45549610154544	6.279923082099118	15.98534066135715	-13.22801665097	-2.286328955277694
1748432646.444544	2.092560555317681	0.1071203905304641	-171.6496381113568	0	0.9399999943917833	0	79.99999999525214	-7.000000001125469	0	79.99999999792263	1.396263401559207	0	0	0	79.99999999525214	-7.000000004501878	0	79.99999999802388	1.396263401560974	0	0	0	2.950127676483164	-0.675149873827706	0.1916005372945709	-5.392994687122165	-0.2834465640602168	27.02586255540198	2.175584812009399	35.97102000325003	-13.47069606477316	-11.98981375082139	-2.755624302074064	2.289401035919104	18.48002970350973	6.244134293186686	15.99535677536033	-13.20859368075683	-2.292135380852232
1748432646.454544	2.091745482290354	0.1077073694556478	-171.6451861083854	0	0.9399999943917833	0	79.99999999525214	-7.000000001125469	0	79.99999999792263	1.396263401559207	0	0	0	79.99999999525214	-7.000000004501878	0	79.99999999802388	1.396263401560974	0	0	0	2.949596227723115	-0.6692941936033966	0.2020649226976564	-5.43774354686366	-0.2530651755159981	27.04987023792204	2.16221797862925	35.95634380770521	-13.4813996103451	-11.99979553988098	-2.774565876150457	2.290694267648954	18.52460548361769	6.245469009527154	16.02223619826174	-13.19846820094188	-2.297202514336728
1748432646.464544	2.100475269171007	0.1091590922400537	-171.640347574834	0	0.9399999943917833	0	79.99999999525214	-7.000000001125469	0	79.99999999792263	1.396263401559207	0	0	0	79.99999999525214	-7.000000004501878	0	79.99999999802388	1.396263401560974	0	0	0	2.984661098108675	-0.6489151746816211	0.2131947599422615	-5.502489545889622	-0.2365961296701988	27.09436332752514	2.150087781751578	35.90815478685713	-13.50581928476628	-12.02045135258474	-2.843818716275199	2.298621925235915	18.5595687762613	6.281186235898428	16.06449385192832	-13.18771638135483	-2.293727407711148
1748432646.474544	2.103044184022567	0.1133265337178775	-171.6321513738608	0	0.9399999943917833	0	79.99999999525214	-7.000000001125469	0	79.99999999792263	1.396263401559207	0	0	0	79.99999999525214	-7.000000004501878	0	79.99999999802388	1.396263401560974	0	0	0	3.000181667159272	-0.6357093089460701	0.2238372684463555	-5.555816577127358	-0.2277371725170686	27.11793534042472	2.142983520459253	35.85421140064864	-13.54186335441603	-12.04331215907484	-2.880403071580602	2.304361419198709	18.56806242591945	6.277741386244554	16.09870454956629	-13.15685762784641	-2.276559068839536
